<svg xmlns="http://www.w3.org/2000/svg" data-name="Layer 1" width="822.034" height="595.291" viewBox="0 0 822.034 595.291"><path d="M695.207 7v221.92c-.67-.68-1.33-1.36-2-2.04q-.614-.624-1.233-1.247a242.56 242.56 0 0 0-210.787-68.396c-27.515 4.443-53.369 11.247-68.83 21.666-116.278 78.362-248.21 3.687-285.15-17.193-.67-.37-1.34-.75-2-1.14V7a7 7 0 0 1 7-7h556a7 7 0 0 1 7 7" fill="#3f3d56"/><path d="m413.707 340.155-15.012 3.395c-1.742 9.887-1.423 50.047-1.423 50.047l-1.293 38.427a6.795 6.795 0 1 0 11.717.99l1.952-47.392Z" fill="#ffb6b6"/><path d="M396.358 301.503a16.24 16.24 0 0 1 19.634 15.466l.247 9.714s3.8 49.513.307 59.183l-4.957 27.921-15.92 2.032-.783-29.375s4.703-32.43-.4-37.692c-3.125-3.222-8.114-16.568-10.617-28.018a16.197 16.197 0 0 1 12.489-19.23" fill="#7c70d2"/><path d="M284.61 563.906a.55.55 0 0 1-.52-.372l-22.835-164.292-45.736 164.426a.552.552 0 0 1-.909-.627l46.356-165.325a.56.56 0 0 1 .529-.234.55.55 0 0 1 .447.367l23.19 165.326a.552.552 0 0 1-.521.731" fill="#e6e6e6"/><path d="M251.761 563.906a.55.55 0 0 1-.547-.63l9.66-165.325a.552.552 0 1 1 1.093.156l-9.66 165.326a.55.55 0 0 1-.546.473" fill="#e6e6e6"/><path d="M335.93 366.314a7.18 7.18 0 0 1-3.02 7.76 7 7 0 0 1-1.205.637l-102.57 42.225a7.18 7.18 0 0 1-9.369-3.904 7 7 0 0 1-.32-.966 7.175 7.175 0 0 1 4.225-8.398l102.57-42.224a.4.4 0 0 1 .073-.024 7.17 7.17 0 0 1 9.616 4.894" fill="#e6e6e6"/><path d="M230.577 389.783a3.035 3.035 0 0 1 3.69 2.194l2.04 8.022a3.035 3.035 0 0 1-2.193 3.69 3.035 3.035 0 0 1-3.69-2.194l-2.04-8.022a3.035 3.035 0 0 1 2.193-3.69" fill="#e6e6e6"/><path d="m224.422 390.21 11.766-2.993a1.93 1.93 0 0 1 2.348 1.396 1.93 1.93 0 0 1-1.395 2.348l-11.767 2.993a1.93 1.93 0 0 1-2.348-1.396 1.93 1.93 0 0 1 1.396-2.348" fill="#e6e6e6"/><path d="M219.89 413.548a7.18 7.18 0 0 1 1.373-8.214 9.38 9.38 0 0 1 8.24 5.262 9.28 9.28 0 0 1 .798 5.782 7.17 7.17 0 0 1-10.412-2.83" fill="#ccc"/><ellipse cx="566.835" cy="724.334" rx="1.439" ry="9.457" transform="rotate(-87.767 393.442 746.357)" fill="#e6e6e6"/><ellipse cx="626.696" cy="729.909" rx="1.439" ry="9.457" transform="rotate(-87.767 453.303 751.932)" fill="#3f3d56"/><ellipse cx="542.605" cy="733.65" rx="1.439" ry="9.457" transform="rotate(-87.767 369.212 755.674)" fill="#ff6584"/><ellipse cx="607.163" cy="742.647" rx="1.439" ry="9.457" transform="rotate(-87.767 433.77 764.67)" fill="#ff6584"/><ellipse cx="518.428" cy="736.161" rx="1.294" ry="4.201" transform="rotate(-89.724 347.693 754.89)" fill="#e6e6e6"/><ellipse cx="541.656" cy="741.521" rx="1.294" ry="4.201" transform="rotate(-89.724 370.92 760.25)" fill="#e6e6e6"/><ellipse cx="503.683" cy="743.535" rx="1.294" ry="4.201" transform="rotate(-89.724 332.946 762.263)" fill="#3f3d56"/><ellipse cx="583.513" cy="734.379" rx="1.294" ry="4.201" transform="rotate(-89.724 412.776 753.107)" fill="#e6e6e6"/><ellipse cx="556.406" cy="729.168" rx="1.294" ry="4.201" transform="rotate(-89.724 385.669 747.896)" fill="#ff6584"/><ellipse cx="601.468" cy="726.285" rx="1.294" ry="4.201" transform="rotate(-89.724 430.731 745.013)" fill="#3f3d56"/><ellipse cx="567.221" cy="741.768" rx="1.294" ry="4.201" transform="rotate(-89.724 396.484 760.497)" fill="#3f3d56"/><path d="M688.207 0h-556a7.01 7.01 0 0 0-7 7v581a7.015 7.015 0 0 0 7 7h556a7.01 7.01 0 0 0 7-7V7a7.01 7.01 0 0 0-7-7m5 588a5 5 0 0 1-5 5h-556a5 5 0 0 1-5-5V7a5.01 5.01 0 0 1 5-5h556a5.01 5.01 0 0 1 5 5ZM511.707.99q-.84-.51-1.68-.99h-58.44c-.42.66-.82 1.33-1.21 2h63.01c-.56-.34-1.12-.67-1.68-1.01m-386.5 197.47v14.9c.25.02.51.02.76.03l-.5 28.64-.26-.14v2.82l.21.11-.21 12.01v41.4h2V191.71q-.84 3.24-2 6.75M511.707.99q-.84-.51-1.68-.99h-58.44c-.42.66-.82 1.33-1.21 2h63.01c-.56-.34-1.12-.67-1.68-1.01" fill="#3f3d56"/><circle cx="618.517" cy="48.82" r="10" fill="#7c70d2"/><circle cx="490.517" cy="90.82" r="2" fill="#7c70d2"/><circle cx="388.517" cy="129.82" r="2" fill="#7c70d2"/><circle cx="275.517" cy="78.82" r="2" fill="#ff6584"/><circle cx="323.517" cy="28.82" r="2" fill="#fff"/><circle cx="657.517" cy="17.82" r="2" fill="#fff"/><circle cx="554.517" cy="51.82" r="2" fill="#fff"/><circle cx="672.517" cy="84.82" r="2" fill="#fff"/><circle cx="321.517" cy="117.82" r="2" fill="#fff"/><circle cx="168.517" cy="111.82" r="2" fill="#ff6584"/><path fill="#fff" d="m243.556 134.907-1.886.164-.426 1.845-.74-1.743-1.886.165 1.429-1.242-.74-1.743 1.623.975 1.429-1.242-.426 1.845zm241-106-1.886.164-.426 1.845-.74-1.743-1.886.165 1.429-1.242-.74-1.743 1.623.975 1.429-1.242-.426 1.845zm114 81-1.886.164-.426 1.845-.74-1.743-1.886.165 1.429-1.242-.74-1.743 1.623.975 1.429-1.242-.426 1.845zm-212-23-1.886.164-.426 1.845-.74-1.743-1.886.165 1.429-1.242-.74-1.743 1.623.975 1.429-1.242-.426 1.845zm-89 89-1.886.164-.426 1.845-.74-1.743-1.886.165 1.429-1.242-.74-1.743 1.623.975 1.429-1.242-.426 1.845zm377-2-1.886.164-.426 1.845-.74-1.743-1.886.165 1.429-1.242-.74-1.743 1.623.975 1.429-1.242-.426 1.845zm-484-116-1.886.164-.426 1.845-.74-1.743-1.886.165 1.429-1.242-.74-1.743 1.623.975 1.429-1.242-.426 1.845z"/><path d="m410.662 359.622 3.265-50.578a8.18 8.18 0 0 1 8.584-7.619 8.18 8.18 0 0 1 7.714 9.025l-5.002 52.434-1.696 31.988a7.139 7.139 0 1 1-8.89 2.214Z" fill="#a0616a"/><path d="M409.907 320.343a2.41 2.41 0 0 1-.264-2.912 3.13 3.13 0 0 0 .438-1.858 3 3 0 0 0-.058-.374 4.72 4.72 0 0 1 1.017-4.243c1.668-1.863 2.545-4.743 2.972-7.323a35.6 35.6 0 0 1 1.92-8.342c1.63-3.792 5.317-7.092 10.123-5.276a9.5 9.5 0 0 1 4.793 4.19c2.286 3.955 2.144 8.634 1.965 13.108l.936-1.737a36.3 36.3 0 0 0 2.084 14.376c-1.077-.25-1.897 1.18-1.584 2.24a6.35 6.35 0 0 0 2.06 2.541c1.014.956 1.953 2.356.92 3.724a2.97 2.97 0 0 1-2.109 1.11 56.2 56.2 0 0 1-22.86-2.59c-1.634-.541-3.38-1.273-4.186-2.794s.114-3.926 1.833-3.84" fill="#f2f2f2"/><path fill="#a0616a" d="M477.379 578.297h8.917l4.243-34.392h-13.16z"/><path d="m474.47 572.19 14.244-.85v6.103l13.544 9.354a3.812 3.812 0 0 1-2.167 6.949h-16.96l-2.922-6.037-1.142 6.037h-6.394Z" fill="#2f2e41"/><path fill="#a0616a" d="m429.441 570.444 8.305 3.246 16.473-30.487-12.257-4.791z"/><path d="m428.954 563.697 13.578 4.394-2.222 5.685 9.209 13.642a3.812 3.812 0 0 1-4.548 5.684l-15.796-6.174-.524-6.687-3.261 5.207-5.956-2.328Zm6.094-207.749h41.6s15.666 111.88 15.71 112.084-8.84 3.435-4.801 7.474l4.04 4.04c3.23 3.23-2.399 14.272-2.399 14.272l6.437 65.702h-26.588l-12.995-135.715 17.58 65.064-22.904 70.65-16.487-9.693-3.232-8.886 6.42-6.42s1.659-9.648 1.659-15.347-4.847-.852 0-5.7c2.097-2.096 8-27.827 8-27.827l-19.31-61.84-4.6-27.606a34.7 34.7 0 0 1 3.045-20.905c2.558-5.246 5.781-12.117 8.825-19.347" fill="#2f2e41"/><path d="m432.625 287.283 2.765-8.294a9.76 9.76 0 0 1 8.654-6.655l2.456-.153a9.76 9.76 0 0 1 9.932 6.864 9.72 9.72 0 0 0 8.44 6.841c7.18.612 17.838 2.783 17.838 10.283 0 11.31-12.117 41.199-9.694 43.623s8.078 12.41 4.847 15.348c-.842.766-.163 4.448.107 7.086.488 4.777-33.228-5.784-42.922-3.047s-4.847-17.772-6.462-19.387a41 41 0 0 1-4.04-5.912 9.7 9.7 0 0 1-1.192-3.106l-2.782-14.082a10 10 0 0 1-.112-.702c-.368-3.014-2.52-23.294 5.702-26.284 8.886-3.23 6.463-2.423 6.463-2.423" fill="#f2f2f2"/><path d="M470.271 361.66 469 310.995a8.18 8.18 0 0 1 7.868-8.356 8.18 8.18 0 0 1 8.49 8.299l-.292 52.67 1.172 32.013a7.139 7.139 0 1 1-8.657 3Z" fill="#a0616a"/><path d="M464.602 321.436a2.41 2.41 0 0 1-.523-2.877 3.13 3.13 0 0 0 .27-1.89 3 3 0 0 0-.091-.367 4.72 4.72 0 0 1 .633-4.317c1.495-2.005 2.11-4.951 2.306-7.56a35.6 35.6 0 0 1 1.165-8.48c1.284-3.923 4.662-7.539 9.61-6.16a9.5 9.5 0 0 1 5.149 3.744c2.631 3.735 2.908 8.407 3.13 12.88l.777-1.814a36.3 36.3 0 0 0 3.361 14.132c-1.095-.152-1.783 1.345-1.377 2.372a6.35 6.35 0 0 0 2.28 2.348c1.095.861 2.155 2.171 1.25 3.626a2.97 2.97 0 0 1-2.002 1.294 56.2 56.2 0 0 1-23-.535c-1.676-.392-3.481-.965-4.42-2.408s-.238-3.92 1.482-3.988" fill="#f2f2f2"/><circle cx="443.757" cy="255.78" r="17.772" fill="#a0616a"/><path d="M426.964 282.784c.01-2.08 2.741-3.17 4.722-2.519 1.973.655 3.395 2.335 4.982 3.673 1.591 1.345 3.795 2.418 5.697 1.58 1.803-.799 2.532-2.934 3.883-4.366a9.1 9.1 0 0 1 5.992-2.438 7 7 0 0 1-.117-.608 12.8 12.8 0 0 1-.134-3.242 9.9 9.9 0 0 0 1.767 2.517 9.3 9.3 0 0 0 1.494 1.258 22 22 0 0 0 6.667-.502c2.61-.77 5.052-3.076 4.848-5.799a6.4 6.4 0 0 0-3.462-4.701c-1.754-1.015 4.392-5.514 2.562-6.374a14.26 14.26 0 0 1-7.648-8.178 10.69 10.69 0 0 1 1.47-9.625c1.617-.204-4.785.564-3.251.005-.181-1.072-.256.727-.163-.353.454.93 1.084-1.112 1.796-.372a6.3 6.3 0 0 0 3.013-3.294c1.172-3.125-.816-3.737-3.397-5.858a15.987 15.987 0 0 0-25.062 6.645c-3.912-1.957-8.945-.113-11.68 3.307-2.726 3.424-3.55 7.997-3.583 12.372a41.83 41.83 0 0 0 9.604 26.872" fill="#2f2e41"/><path fill="#ffb6b6" d="m362.459 585.863-8.325-.001-3.96-32.109 12.286.001z"/><path d="m362.752 594.547-25.599-.001v-.324a9.964 9.964 0 0 1 9.964-9.964l4.676-3.547 8.725 3.548h2.234Z" fill="#2f2e41"/><path fill="#ffb6b6" d="m400.293 585.863-8.324-.001-3.96-32.109 12.286.001z"/><path d="m400.586 594.547-25.599-.001v-.324a9.964 9.964 0 0 1 9.964-9.964l4.677-3.547 8.724 3.548h2.234ZM342.22 379.716s-13.453 16.686-10.844 21.012 6.812 2.828 2.608 7.36-5.888 4.586-2.944 7.923 5.501 76.264 5.501 76.264l13.417 75.887 14.767 1.33s2.755-9.274 2.822-12.87.067-.462.067-7.913-2.656-1.679-.067-8.769 5.818-27.977 0-38.132-1.245-1.245-1.245-1.245l4.507-68.823 8.576 70.842s0 24.382 4.204 42.038l.695 24.872 18.119-.692s4.727-7.364 3.046-15.772 5.044-12.611 5.044-16.815-.354-44.415-.354-44.415l-3.93-83.71s3.443-19.008-4.123-26.575-59.866-1.797-59.866-1.797" fill="#2f2e41"/><path d="m358.336 290.935 11.61-13.074 18.347 2.039 11.746 16.438c12.981 2.988 15.375 13.601 13.096 26.726-4.558 26.246-15.81 44.593-10.695 57.543 7.764 19.658 4 34.785-14.586 32.029s-61.412-20.956-49.34-33.028 8.379-27.493 8.379-27.493l1.374-37.058c-2.17-11.77-1.835-22.89 10.07-24.122" fill="#7c70d2"/><path d="m352.76 335.82-12.936-8.34c-8.278 5.68-36.727 34.027-36.727 34.027l-28.34 25.984a6.795 6.795 0 1 0 7.497 9.058l35.203-31.79Z" fill="#ffb6b6"/><path d="M368.207 296.37a16.24 16.24 0 0 1 2.706 24.847l-6.762 6.979s-32.688 37.381-42.038 41.659l-23.405 16.011-12.598-9.943 20.424-21.128s26.445-19.35 26.629-26.678c.112-4.487 6.147-17.393 12.57-27.198a16.197 16.197 0 0 1 22.474-4.549" fill="#7c70d2"/><circle data-name="ab6171fa-7d69-4734-b81c-8dff60f9761b" cx="571.082" cy="406.595" r="18.965" transform="rotate(-70.375 368.905 464.319)" fill="#ffb6b6"/><path d="M372.619 232.88a10.7 10.7 0 0 1 3.214-3.487 5.22 5.22 0 0 1 7.403 2.389 5.7 5.7 0 0 1 .665-2.613 14.5 14.5 0 0 0 3.696 2.704l-1.99-4.44c7.544-.572 12.87 1.503 15.262 7.076.685 1.595 3.26 1.57 4.015 3.234s-.12 4.327-1.878 4.478c3.379-.06 2.34 2.788 3.333 6.217.992 3.428.433 7.284-.679 10.822-1.442 4.587-5.488 7.591-9.44 9.938-2.583 1.535-7.728 3.864-7.754 3.878-14.207 7.455-23.264-7.755-19.882-22.769.763-3.39 3.534-7.067 1.548-9.609-1.545-1.979-4.473-1.614-6.926-1.09.956-3.292 7.565-3.865 9.413-6.728" fill="#2f2e41"/><ellipse cx="789.185" cy="725.581" rx="1.439" ry="10.36" transform="rotate(-87.767 615.792 747.604)" fill="#e6e6e6"/><ellipse cx="854.774" cy="731.38" rx="1.439" ry="10.36" transform="rotate(-87.767 681.38 753.403)" fill="#3f3d56"/><ellipse cx="762.68" cy="734.809" rx="1.439" ry="10.36" transform="rotate(-87.767 589.289 756.833)" fill="#ff6584"/><ellipse cx="833.426" cy="744.047" rx="1.439" ry="10.36" transform="rotate(-87.767 660.032 766.07)" fill="#ff6584"/><ellipse cx="736.207" cy="737.231" rx="1.294" ry="4.602" transform="rotate(-89.523 565.201 756.293)" fill="#e6e6e6"/><ellipse cx="761.67" cy="742.678" rx="1.294" ry="4.602" transform="rotate(-89.523 590.664 761.74)" fill="#e6e6e6"/><ellipse cx="720.084" cy="744.551" rx="1.294" ry="4.602" transform="rotate(-89.523 549.077 763.61)" fill="#3f3d56"/><ellipse cx="807.491" cy="735.69" rx="1.294" ry="4.602" transform="rotate(-89.523 636.484 754.748)" fill="#e6e6e6"/><ellipse cx="777.779" cy="730.377" rx="1.294" ry="4.602" transform="rotate(-89.523 606.772 749.436)" fill="#ff6584"/><ellipse cx="827.127" cy="727.662" rx="1.294" ry="4.602" transform="rotate(-89.523 656.122 746.723)" fill="#3f3d56"/><ellipse cx="789.673" cy="743.02" rx="1.294" ry="4.602" transform="rotate(-89.523 618.667 762.082)" fill="#3f3d56"/><ellipse cx="403.835" cy="725.334" rx="1.439" ry="9.457" transform="rotate(-87.767 230.442 747.357)" fill="#e6e6e6"/><ellipse cx="463.696" cy="730.909" rx="1.439" ry="9.457" transform="rotate(-87.767 290.303 752.932)" fill="#3f3d56"/><ellipse cx="379.605" cy="734.65" rx="1.439" ry="9.457" transform="rotate(-87.767 206.212 756.674)" fill="#ff6584"/><ellipse cx="444.163" cy="743.647" rx="1.439" ry="9.457" transform="rotate(-87.767 270.77 765.67)" fill="#ff6584"/><ellipse cx="355.428" cy="737.161" rx="1.294" ry="4.201" transform="rotate(-89.724 184.693 755.89)" fill="#e6e6e6"/><ellipse cx="378.656" cy="742.521" rx="1.294" ry="4.201" transform="rotate(-89.724 207.92 761.25)" fill="#e6e6e6"/><ellipse cx="340.683" cy="744.535" rx="1.294" ry="4.201" transform="rotate(-89.724 169.946 763.263)" fill="#3f3d56"/><ellipse cx="420.513" cy="735.379" rx="1.294" ry="4.201" transform="rotate(-89.724 249.776 754.107)" fill="#e6e6e6"/><ellipse cx="393.406" cy="730.168" rx="1.294" ry="4.201" transform="rotate(-89.724 222.669 748.896)" fill="#ff6584"/><ellipse cx="438.468" cy="727.285" rx="1.294" ry="4.201" transform="rotate(-89.724 267.731 746.013)" fill="#3f3d56"/><ellipse cx="404.221" cy="742.768" rx="1.294" ry="4.201" transform="rotate(-89.724 233.484 761.497)" fill="#3f3d56"/><path d="M687.541 508.561a55.37 55.37 0 0 1-35.982-13.287c-3.345-2.864-6.91-7.842-10.594-14.795a33.84 33.84 0 0 1-1.073-29.21 38.8 38.8 0 0 1-6.411 5.259l-1.172.78-.068-1.406a56 56 0 0 1-.067-2.708c0-5.202 3.934-10.48 2.12-15.288-7.648-20.265-31.904-40.405 3.25-71.768 3.253-2.901-1.092-8.702-1.092-13.091 0-43.019 46.742-107.55 78.033-78.017 18.264 17.239 56.317 29.485 74.084 53.464l.235.71-.693.28A41.8 41.8 0 0 1 777 332.44a53 53 0 0 0 12.388 1.038l.645-.023.157.627a78.4 78.4 0 0 1 2.326 18.965l-.003.69a34.56 34.56 0 0 0 11.415 25.767 55.5 55.5 0 0 1 18.105 40.948c0 9.12-6.199 21.092-11.398 29.528a16.7 16.7 0 0 1-12.258 7.852 16.3 16.3 0 0 1-13.16-4.252 54 54 0 0 0 9.51 13.464l.71.73-.881.514a55.3 55.3 0 0 1-27.89 7.532l-.574-.002c-14.877 0-29 5.764-38.744 15.814a55.8 55.8 0 0 1-39.808 16.929" fill="#7c70d2"/><path d="M668.017 595.291a.996.996 0 0 1-.985-.855c-.042-.297-4.185-30.181-.464-69.898 3.437-36.68 14.473-89.512 47.535-132.902a.996.996 0 1 1 1.584 1.207c-32.776 43.015-43.724 95.46-47.136 131.88-3.7 39.486.411 69.137.453 69.432a.997.997 0 0 1-.987 1.136" fill="#3f3d56"/><path d="M698.205 451.742a.996.996 0 0 1-.586-1.802 137.2 137.2 0 0 1 30.297-15.422c16.715-6.12 42.133-11.668 68.3-3.34a.996.996 0 1 1-.603 1.898c-25.632-8.157-50.589-2.701-67.013 3.312a135 135 0 0 0-29.81 15.163 1 1 0 0 1-.585.19M651.95 334.14a.996.996 0 0 1 1.754-.715 137.2 137.2 0 0 1 17.565 29.108c7.307 16.231 14.67 41.184 8.249 67.883a.996.996 0 1 1-1.936-.466c6.29-26.152-.95-50.652-8.13-66.6a135 135 0 0 0-17.27-28.64 1 1 0 0 1-.232-.57" fill="#3f3d56"/><path d="M94.685 491.632c-9.745-10.05-23.867-15.814-38.744-15.814l-.574.002a55.3 55.3 0 0 1-27.89-7.532l-.88-.513.709-.731a54 54 0 0 0 9.51-13.464 16.3 16.3 0 0 1-13.16 4.252 16.7 16.7 0 0 1-12.258-7.851C6.198 441.544 0 429.572 0 420.453a55.5 55.5 0 0 1 18.104-40.949 34.56 34.56 0 0 0 11.416-25.766l-.003-.691a78.4 78.4 0 0 1 2.326-18.965l.157-.627.645.023a53 53 0 0 0 12.389-1.038 41.8 41.8 0 0 1-11.111-2.955l-.694-.28.236-.711c17.767-23.979 55.82-36.225 74.084-53.464 31.29-29.534 78.032 34.998 78.032 78.017 0 4.39-4.344 10.19-1.092 13.091 35.155 31.363 10.899 51.503 3.251 71.768-1.814 4.808 2.12 10.086 2.12 15.288 0 .883-.023 1.794-.067 2.708l-.068 1.406-1.172-.78a38.8 38.8 0 0 1-6.411-5.26 33.84 33.84 0 0 1-1.074 29.21c-3.684 6.954-7.248 11.932-10.593 14.796a55.313 55.313 0 0 1-75.79-3.642" fill="#7c70d2"/><path d="M154.017 595.291a.996.996 0 0 0 .984-.855c.043-.297 4.186-30.181.465-69.898-3.437-36.68-14.474-89.512-47.536-132.902a.996.996 0 1 0-1.584 1.207c32.777 43.015 43.724 95.46 47.137 131.88 3.7 39.486-.411 69.137-.453 69.432a.997.997 0 0 0 .987 1.136" fill="#3f3d56"/><path d="M123.829 451.742a.996.996 0 0 0 .586-1.802 137.2 137.2 0 0 0-30.297-15.422c-16.715-6.12-42.133-11.668-68.3-3.34a.996.996 0 1 0 .603 1.898c25.631-8.157 50.589-2.701 67.012 3.312a135 135 0 0 1 29.811 15.163 1 1 0 0 0 .585.19m46.255-117.601a.996.996 0 0 0-1.754-.715 137.2 137.2 0 0 0-17.565 29.108c-7.307 16.231-14.671 41.184-8.249 67.883a.996.996 0 1 0 1.936-.466c-6.29-26.152.95-50.652 8.13-66.6a135 135 0 0 1 17.27-28.64 1 1 0 0 0 .232-.57" fill="#3f3d56"/><path fill="#e6e6e6" d="m56.306 133.18 102.419-1.48.029 2-102.42 1.48z"/><path d="M160.926 137.688a4.967 4.967 0 1 1 2.187.509 5 5 0 0 1-2.187-.509m1.214-7.33a2.98 2.98 0 0 0-1.72 1.52v.001a3.007 3.007 0 1 0 1.72-1.522" fill="#e6e6e6"/><circle cx="26.357" cy="134.903" r="18" fill="#3f3d56"/><path fill="#e6e6e6" d="m626.873 87.77.029-2 102.42 1.48-.03 2z"/><path d="M622.602 92.197a5.009 5.009 0 1 1 2.187-.509 5 5 0 0 1-2.187.509m-.007-8.005a3.002 3.002 0 1 0 2.698 1.687 3.01 3.01 0 0 0-2.698-1.687" fill="#e6e6e6"/><circle cx="759.357" cy="88.903" r="18" fill="#3f3d56"/><path fill="#e6e6e6" d="m541.506 238.336 19.713-100.515 1.962.385-19.713 100.515z"/><path d="M557.625 132.83a5.009 5.009 0 1 1 .11 2.243 5 5 0 0 1-.11-2.242m7.877 1.42a3.002 3.002 0 1 0-2.141 2.356 3.01 3.01 0 0 0 2.141-2.355" fill="#e6e6e6"/><circle cx="536.487" cy="267.983" r="18" fill="#3f3d56"/></svg>